<svg xmlns="http://www.w3.org/2000/svg" viewBox="0 0 672.37 300.49"><defs><style>.cls-1{fill:#231f20;}.cls-2{fill:#fff;}.cls-3{fill:#211e1f;}</style></defs><g id="Layer_2" data-name="Layer 2"><g id="Слой_1" data-name="Слой 1"><polygon class="cls-1" points="375.8 215.72 0 215.72 65.64 152.88 18.16 86.99 393.96 86.99 375.8 215.72"/><path class="cls-2" d="M113.46,181.78l9.11-60.85H142.5q10.33,0,15.91,4.24t4.4,12.43a16,16,0,0,1-3.3,7.59,15.66,15.66,0,0,1-7,4.87q5.47,1.08,7.72,5a13.85,13.85,0,0,1,1.52,9q-1.38,9.06-7.73,13.39t-17,4.33Zm16.21-26.92L127,172.42h11.37a12.67,12.67,0,0,0,7.63-2.14,9,9,0,0,0,3.57-6.22q.63-4.6-1.46-6.9t-7.23-2.3Zm1.3-8.44h8.61a12.85,12.85,0,0,0,7.4-2.13,8.3,8.3,0,0,0,3.46-5.73q.67-4.38-1.64-6.3t-7.67-1.93h-7.74Z"/><path class="cls-2" d="M181,181.78H168.83l9.11-60.85h12.21Z"/><path class="cls-2" d="M213.26,156.53h-4.35l-3.76,25.25H192.9L202,120.93h12.25l-3.72,24.86h4.26L232,120.93H247.9l-23.82,30.38,15.55,30.47h-14Z"/><path class="cls-2" d="M284.34,155H261.77l-2.63,17.39H286l-1.42,9.36h-39l9.11-60.85h39l-1.38,9.4H265.45l-2.3,15.3h22.61Z"/><path class="cls-2" d="M309,157.45l-3.64,24.33h-12.2l9.11-60.85h21.06q10,0,15.36,4.78t4.12,13.19a15.65,15.65,0,0,1-3.72,8.27,20.93,20.93,0,0,1-8.15,5.39q5,1.68,6.91,5.4a14.67,14.67,0,0,1,1.11,9l-.67,4.47a22.39,22.39,0,0,0-.1,5.37,6.14,6.14,0,0,0,1.73,4.08l-.12.88H327.22a5.85,5.85,0,0,1-1.46-4.37,39.43,39.43,0,0,1,.37-6l.67-4.3c.47-3.15,0-5.54-1.38-7.17s-3.63-2.45-6.73-2.45Zm1.42-9.4h8.65a12.82,12.82,0,0,0,7.86-2.19,9.52,9.52,0,0,0,3.59-6.42c.42-2.87-.08-5.1-1.5-6.71s-3.78-2.4-7.07-2.4h-8.86Z"/><path class="cls-1" d="M458.22,161.63l.08.25Q457,172,450.15,177.33t-17.72,5.32q-10.53,0-16.4-7.1t-4.24-18.14l1.84-12.07q1.71-11.53,9.25-18.41a26.21,26.21,0,0,1,18.33-6.88q10.69,0,16.34,5.5t4,15.23l-.13.25H449.57q.92-6.06-1.47-8.82c-1.58-1.84-4.36-2.76-8.31-2.76a11.67,11.67,0,0,0-9.11,4.48,22,22,0,0,0-4.89,11.32L424,157.41q-1.09,7.28,1.48,11.58t8.38,4.3a12.25,12.25,0,0,0,8.51-2.9q3.24-2.91,4.11-8.76Z"/><path class="cls-1" d="M477.65,172.42h27.29l-1.42,9.36H464.07l9.11-60.85h12.2Z"/><path class="cls-1" d="M568,120.93l-6,39.83q-1.59,10.69-9.15,16.29t-18.6,5.6q-10.4,0-16.5-5.87t-4.56-16l6-39.83h12.24l-6,39.83c-.64,4.2,0,7.35,1.79,9.42s4.64,3.11,8.4,3.11a14,14,0,0,0,9.32-3.26,14.41,14.41,0,0,0,4.81-9.27l6-39.83Z"/><path class="cls-1" d="M569.42,181.78l9.11-60.85h19.94q10.32,0,15.9,4.24t4.41,12.43a16.21,16.21,0,0,1-3.3,7.59,15.77,15.77,0,0,1-7,4.87q5.47,1.08,7.71,5a13.79,13.79,0,0,1,1.52,9q-1.38,9.06-7.73,13.39t-17,4.33Zm16.22-26.92L583,172.42h11.37a12.65,12.65,0,0,0,7.63-2.14,9,9,0,0,0,3.57-6.22q.63-4.6-1.46-6.9t-7.23-2.3Zm1.29-8.44h8.61a12.83,12.83,0,0,0,7.4-2.13,8.31,8.31,0,0,0,3.47-5.73q.66-4.38-1.65-6.3t-7.67-1.93h-7.73Z"/><path class="cls-1" d="M547.63,79.13c3.64,0,4.45-1.75,5.17-3.76H556v29.91h-4.69V82.47h-3.64Z"/><path class="cls-1" d="M575.45,97.85c0,5-2.31,7.77-7.18,7.77-4.61,0-7-2.73-7-7.52v-.77h4.45V98.4c0,2.14.94,2.95,2.43,2.95,1.67,0,2.61-.81,2.61-3.67V92.21a4.48,4.48,0,0,1-4.36,2.65c-3.46,0-5.21-2.44-5.21-6.84V82.55c0-4.79,2.52-7.52,7.13-7.52s7.14,2.73,7.14,7.52Zm-4.7-10.21V82.25c0-2.13-.94-2.9-2.44-2.9s-2.43.77-2.43,2.9v5.39c0,2.13.94,2.94,2.43,2.94S570.75,89.77,570.75,87.64Z"/><path class="cls-1" d="M585.32,105.62c-4.75,0-7.35-2.73-7.35-7.52V95.75c0-2.86.85-5.08,2.9-6.23-2-1.07-2.9-3.08-2.9-6v-.94c0-4.79,2.6-7.52,7.35-7.52s7.35,2.73,7.35,7.52v.94c0,3-1,5-2.91,6,2,1.15,2.91,3.37,2.91,6.23V98.1C592.67,102.89,590.06,105.62,585.32,105.62Zm-2.65-21.23c0,2.39,1.11,3.16,2.65,3.16s2.65-.77,2.65-3.16V82.72c0-2.69-1.16-3.42-2.65-3.42s-2.65.73-2.65,3.42Zm2.65,17c1.49,0,2.6-.73,2.65-3.37V95.2c0-2.35-1-3.38-2.65-3.38s-2.65,1-2.65,3.38V98C582.67,100.62,583.82,101.35,585.32,101.35Z"/><path class="cls-1" d="M609.29,97.85c0,5-2.31,7.77-7.18,7.77-4.62,0-7-2.73-7-7.52v-.77h4.44V98.4c0,2.14.94,2.95,2.44,2.95,1.67,0,2.61-.81,2.61-3.67V92.21a4.49,4.49,0,0,1-4.36,2.65c-3.46,0-5.21-2.44-5.21-6.84V82.55c0-4.79,2.52-7.52,7.13-7.52s7.14,2.73,7.14,7.52Zm-4.7-10.21V82.25c0-2.13-.94-2.9-2.44-2.9s-2.43.77-2.43,2.9v5.39c0,2.13.94,2.94,2.43,2.94S604.59,89.77,604.59,87.64Z"/><polygon class="cls-1" points="618.73 86.99 617.59 95.06 663.09 95.06 647.2 207.65 464.07 207.65 398.05 207.65 389.9 207.65 388.76 215.72 654.22 215.72 672.37 86.99 618.73 86.99"/><polygon class="cls-1" points="464.07 95.06 540.06 95.06 541.2 86.99 406.92 86.99 405.78 95.06 413.93 95.06 464.07 95.06"/><polygon class="cls-1" points="356.36 15.08 364.36 31.29 382.25 33.89 369.31 46.51 372.36 64.32 356.36 55.91 340.36 64.32 343.42 46.51 330.47 33.89 348.36 31.29 356.36 15.08"/><polygon class="cls-1" points="289.28 26.7 295.39 39.08 309.06 41.07 299.17 50.71 301.51 64.32 289.28 57.9 277.06 64.32 279.39 50.71 269.5 41.07 283.17 39.08 289.28 26.7"/><polygon class="cls-1" points="423.44 26.7 429.55 39.08 443.22 41.07 433.33 50.71 435.67 64.32 423.44 57.9 411.21 64.32 413.55 50.71 403.66 41.07 417.33 39.08 423.44 26.7"/><polygon class="cls-1" points="231.84 37.39 236.21 46.25 246 47.67 238.92 54.58 240.59 64.32 231.84 59.72 223.08 64.32 224.75 54.58 217.68 47.67 227.46 46.25 231.84 37.39"/><polygon class="cls-1" points="480.89 37.39 485.26 46.25 495.05 47.67 487.97 54.58 489.64 64.32 480.89 59.72 472.13 64.32 473.81 54.58 466.72 47.67 476.51 46.25 480.89 37.39"/><polygon class="cls-3" points="630.22 244.41 648.91 244.41 652.22 225.72 633.52 225.72 630.22 244.41"/><polygon class="cls-3" points="592.9 244.41 611.6 244.41 614.9 225.72 596.21 225.72 592.9 244.41"/><polygon class="cls-3" points="608.22 263.1 626.91 263.1 630.22 244.41 611.52 244.41 608.22 263.1"/><polygon class="cls-3" points="555.59 244.41 574.28 244.41 577.59 225.72 558.89 225.72 555.59 244.41"/><polygon class="cls-3" points="570.9 263.1 589.6 263.1 592.9 244.41 574.21 244.41 570.9 263.1"/><polygon class="cls-3" points="586.22 281.8 604.92 281.8 608.22 263.1 589.53 263.1 586.22 281.8"/><polygon class="cls-3" points="548.91 281.8 567.6 281.8 570.9 263.1 552.21 263.1 548.91 281.8"/><polygon class="cls-3" points="564.23 300.49 582.92 300.49 586.22 281.8 567.53 281.8 564.23 300.49"/><polygon class="cls-3" points="511.59 281.8 530.29 281.8 533.59 263.1 514.9 263.1 511.59 281.8"/><polygon class="cls-3" points="526.91 300.49 545.6 300.49 548.91 281.8 530.21 281.8 526.91 300.49"/><polygon class="cls-3" points="167.7 18.69 186.39 18.69 189.69 0 171 0 167.7 18.69"/><polygon class="cls-3" points="130.38 18.69 149.08 18.69 152.38 0 133.69 0 130.38 18.69"/><polygon class="cls-3" points="145.7 37.39 164.39 37.39 167.7 18.69 149 18.69 145.7 37.39"/><polygon class="cls-3" points="123.7 56.08 142.4 56.08 145.7 37.39 127.01 37.39 123.7 56.08"/><polygon class="cls-3" points="86.39 56.08 105.08 56.08 108.39 37.39 89.69 37.39 86.39 56.08"/><polygon class="cls-3" points="101.7 74.77 120.4 74.77 123.7 56.08 105.01 56.08 101.7 74.77"/><polygon class="cls-3" points="64.39 74.77 83.08 74.77 86.39 56.08 67.69 56.08 64.39 74.77"/></g></g></svg>